<?xml version="1.0" encoding="utf-8"?>
<!-- Generator: Adobe Illustrator 18.1.1, SVG Export Plug-In . SVG Version: 6.00 Build 0)  -->
<svg version="1.1" id="Layer_1" xmlns="http://www.w3.org/2000/svg" xmlns:xlink="http://www.w3.org/1999/xlink" x="0px" y="0px"
	 viewBox="0 0 612 792" enable-background="new 0 0 612 792" xml:space="preserve">
<path fill="#FFFFFF" d="M260.6,349.5H128.4c-6.6,0-12-5.4-12-12V196c0-6.6,5.4-12,12-12h132.2c6.6,0,12,5.4,12,12v141.5
	C272.6,344.1,267.2,349.5,260.6,349.5z"/>
<path fill="#FFFFFF" d="M185.5,551.9h-82.4c-6.6,0-12-5.4-12-12v-88.8c0-6.6,5.4-12,12-12h82.4c6.6,0,12,5.4,12,12v88.8
	C197.5,546.5,192.1,551.9,185.5,551.9z"/>
<path fill="#FFFFFF" d="M343.4,551.9H261c-6.6,0-12-5.4-12-12v-88.8c0-6.6,5.4-12,12-12h82.4c6.6,0,12,5.4,12,12v88.8
	C355.4,546.5,350,551.9,343.4,551.9z"/>
<path fill="#FFFFFF" d="M501.3,551.9h-82.4c-6.6,0-12-5.4-12-12v-88.8c0-6.6,5.4-12,12-12h82.4c6.6,0,12,5.4,12,12v88.8
	C513.3,546.5,507.9,551.9,501.3,551.9z"/>
<g>
	<path fill="#8D5BB4" d="M185.6,650.7h-81.8c-13.5,0-24.9-10.4-25.7-23.8C77.3,612.2,89,600,103.4,600h81.8
		c13.5,0,24.9,10.4,25.7,23.8C211.7,638.4,200,650.7,185.6,650.7z"/>
</g>
<g>
	<path fill="#8D5BB4" d="M347.6,650.7h-81.8c-13.5,0-24.9-10.4-25.7-23.8c-0.9-14.6,10.8-26.8,25.3-26.8h81.8
		c13.5,0,24.9,10.4,25.7,23.8C373.7,638.4,362,650.7,347.6,650.7z"/>
</g>
<g>
	<path fill="#8D5BB4" d="M502.9,650.7h-81.8c-13.5,0-24.9-10.4-25.7-23.8c-0.9-14.6,10.8-26.8,25.3-26.8h81.8
		c13.5,0,24.9,10.4,25.7,23.8C529.1,638.4,517.4,650.7,502.9,650.7z"/>
</g>
<g>
	<path fill="#FEB737" d="M61.9,49.8v687.1c0,16.2-12.4,29.9-28.6,30.9c-17.6,1-32.2-13-32.2-30.4l0-687c0-16.2,12.5-30,28.6-30.9
		C47.2,18.4,61.9,32.5,61.9,49.8z"/>
</g>
<g>
	<path fill="#8D5BB4" d="M31.5,19.4h549c16.2,0,29.9,12.4,30.9,28.6c1,17.6-13,32.2-30.4,32.2H32c-16.2,0-30-12.5-30.9-28.6
		C0.1,34.1,14.1,19.4,31.5,19.4z"/>
</g>
<g>
	<path fill="#FEB737" d="M611.4,49.8v691.9c0,16.2-12.4,29.9-28.6,30.9c-17.6,1-32.2-13-32.2-30.4V50.3c0-16.2,12.5-30,28.6-30.9
		C596.7,18.4,611.4,32.5,611.4,49.8z"/>
</g>
<g>
	<path fill="#8D5BB4" d="M31.6,711.8H582c16.2,0,29.9,12.4,30.9,28.6c1,17.6-13,32.2-30.4,32.2H32.1c-16.2,0-30-12.5-30.9-28.6
		C0.2,726.4,14.2,711.8,31.6,711.8z"/>
</g>
<g>
	<path fill="#FEB737" d="M61.9,49.8v518.6c0,16.2-12.4,29.9-28.6,30.9c-17.6,1-32.2-13-32.2-30.4L1,50.3c0-16.2,12.5-30,28.6-30.9
		C47.2,18.4,61.9,32.5,61.9,49.8z"/>
</g>
<g>
	<path fill="#8D5BB4" d="M158.5,19.4h422.4c16.2,0,29.9,12.4,30.9,28.6c1,17.6-13,32.2-30.4,32.2H159c-16.2,0-30-12.5-30.9-28.6
		C127.1,34.1,141.2,19.4,158.5,19.4z"/>
</g>
<g>
	<path fill="#E191E5" d="M503,225.9H348.1c-11.1,0-20.6-8.6-21.2-19.7c-0.7-12.1,9-22.2,20.9-22.2h154.9c11.1,0,20.6,8.6,21.3,19.7
		C524.6,215.8,515,225.9,503,225.9z"/>
</g>
<g>
	<path fill="#FEB737" d="M611.8,149v592.7c0,16.2-12.4,29.9-28.6,30.9c-17.6,1-32.2-13-32.2-30.4V149.5c0-16.2,12.5-30,28.6-30.9
		C597.1,117.6,611.8,131.7,611.8,149z"/>
</g>
<g>
	<path fill="#E191E5" d="M425.8,287.9h-77.7c-11.1,0-20.6-8.6-21.2-19.7c-0.7-12.1,9-22.2,20.9-22.2h77.6c11.1,0,20.6,8.6,21.3,19.7
		C447.4,277.8,437.7,287.9,425.8,287.9z"/>
</g>
<g>
	<path fill="#E191E5" d="M478.1,349.9H346.8c-11.1,0-20.6-8.6-21.2-19.7c-0.7-12.1,9-22.2,20.9-22.2h131.3
		c11.1,0,20.6,8.6,21.3,19.7C499.7,339.8,490.1,349.9,478.1,349.9z"/>
</g>
</svg>
