<?xml version="1.0" encoding="utf-8"?>
<svg version="1.1" id="Layer_1" xmlns="http://www.w3.org/2000/svg" xmlns:xlink="http://www.w3.org/1999/xlink" x="0px" y="0px"
	 viewBox="0 0 40 40" width="40px" height="40px" enable-background="new 0 0 40 40" xml:space="preserve">
<g>

		<line fill="none" stroke="#A6C3FD" stroke-width="6" stroke-linecap="round" stroke-miterlimit="10" x1="3" y1="37" x2="3" y2="3"/>

		<line fill="none" stroke="#FEB737" stroke-width="6" stroke-linecap="round" stroke-miterlimit="10" x1="37" y1="37" x2="37" y2="3"/>

		<line fill="none" stroke="#E191E5" stroke-width="6" stroke-linecap="round" stroke-miterlimit="10" x1="37" y1="37" x2="3" y2="37"/>

		<line fill="none" stroke="#8D5BB4" stroke-width="6" stroke-linecap="round" stroke-miterlimit="10" x1="37" y1="3" x2="3" y2="3"/>

		<line fill="none" stroke="#A6C3FD" stroke-width="6" stroke-linecap="round" stroke-miterlimit="10" x1="3" y1="21" x2="3" y2="3"/>
</g>
<line fill="none" stroke="#FEB737" stroke-width="6" stroke-linecap="round" stroke-miterlimit="10" x1="37" y1="37" x2="37" y2="21"/>
<path fill="#E32C26" d="M28.9,15.9c-0.1-1.1-0.9-1.9-2-2c-3.4-0.3-10.2-0.3-13.8,0c-1.1,0.1-1.9,0.9-2,2c-0.2,2.1-0.2,6.2,0,8.2
	c0.1,1.1,0.9,1.9,2,2c3.5,0.3,10.3,0.3,13.8,0c1.1-0.1,1.9-0.9,2-2C29.2,22,29.2,17.9,28.9,15.9z M17.4,23.8v-7.5l6,3.8L17.4,23.8z"
	/>
</svg>
